<svg xmlns="http://www.w3.org/2000/svg" width="100" height="100" viewBox="0 0 100 100">
  <!-- Purple background -->
  <rect width="100" height="100" fill="#8a4baf" rx="15" ry="15" />
  
  <!-- Flower icon in white -->
  <path d="M50 25c-3 0-5.5 2.5-5.5 5.5s2.5 5.5 5.5 5.5 5.5-2.5 5.5-5.5-2.5-5.5-5.5-5.5zm-16 16c-3 0-5.5 2.5-5.5 5.5s2.5 5.5 5.5 5.5 5.5-2.5 5.5-5.5-2.5-5.5-5.5-5.5zm32 0c-3 0-5.5 2.5-5.5 5.5s2.5 5.5 5.5 5.5 5.5-2.5 5.5-5.5-2.5-5.5-5.5-5.5zm-16 16c-3 0-5.5 2.5-5.5 5.5s2.5 5.5 5.5 5.5 5.5-2.5 5.5-5.5-2.5-5.5-5.5-5.5z" fill="white" />
  
  <!-- Stem -->
  <rect x="48.5" y="30" width="3" height="40" fill="white" />
  
  <!-- Leaves -->
  <path d="M47 50c-3 2-8 1.5-10.5-1.5s-1.5-8 1.5-10c-3-2-4-7-1.5-10s7-4 10-1.5c-2-3-1.5-8 1.5-10.5s8-1.5 10 1.5c2-3 7-4 10-1.5s4 7 1.5 10c3 2 4 7 1.5 10s-7 4-10 1.5c2 3 1.5 8-1.5 10.5s-8 1.5-10-1.5z" fill="white" fill-opacity="0.3" stroke="white" stroke-width="0.5" />
</svg> 