<svg xmlns="http://www.w3.org/2000/svg" width="512" height="512" viewBox="0 0 512 512">
  <!-- Purple background -->
  <rect width="512" height="512" fill="#8a4baf" rx="80" ry="80" />
  
  <!-- White flower icon -->
  <path d="M256 120c-17.7 0-32 14.3-32 32s14.3 32 32 32c17.7 0 32-14.3 32-32s-14.3-32-32-32zm-96 96c-17.7 0-32 14.3-32 32s14.3 32 32 32c17.7 0 32-14.3 32-32s-14.3-32-32-32zm192 0c-17.7 0-32 14.3-32 32s14.3 32 32 32c17.7 0 32-14.3 32-32s-14.3-32-32-32zm-96 96c-17.7 0-32 14.3-32 32s14.3 32 32 32c17.7 0 32-14.3 32-32s-14.3-32-32-32z" fill="white" />
  
  <!-- Stem -->
  <rect x="248" y="152" width="16" height="208" fill="white" />
  
  <!-- Leaves -->
  <path d="M240 280c-20 15-50 10-65-10s-10-50 10-65c-20-15-25-45-10-65s45-25 65-10c-15-20-10-50 10-65s50-10 65 10c15-20 45-25 65-10s25 45 10 65c20 15 25 45 10 65s-45 25-65 10c15 20 10 50-10 65s-50 10-65-10z" fill="white" stroke="white" stroke-width="2" />
</svg> 